<svg height="512" viewBox="0 0 56 56" width="512" xmlns="http://www.w3.org/2000/svg"><g id="Page-1" fill="none" fill-rule="evenodd"><g id="008---Ship-Wheel" fill="rgb(0,0,0)" fill-rule="nonzero"><path id="Shape" d="m28 23c-2.7614237 0-5 2.2385763-5 5s2.2385763 5 5 5 5-2.2385763 5-5c-.0033061-2.7600532-2.2399468-4.9966939-5-5zm0 8c-1.6568542 0-3-1.3431458-3-3s1.3431458-3 3-3 3 1.3431458 3 3-1.3431458 3-3 3z"/><circle id="Oval" cx="28" cy="28" r="1"/><path id="Shape" d="m29 5.025v-4.025c.0019672-.2605963-.1015486-.51090968-.287-.694-.1853095-.19594523-.4433082-.30667119-.713-.306-.5522847 0-1 .44771525-1 1v4.025c.332-.014.665-.025 1-.025s.668.011 1 .025z"/><path id="Shape" d="m29 21.08v-6.029c-.331-.026-.662-.051-1-.051s-.669.025-1 .051v6.029c.6624-.1066667 1.3376-.1066667 2 0z"/><path id="Shape" d="m27 50.975v4.025c-.0019672.2605963.1015486.5109097.287.694.1853095.1959452.4433082.3066712.713.306.5522847 0 1-.4477153 1-1v-4.025c-.332.014-.665.025-1 .025s-.668-.011-1-.025z"/><path id="Shape" d="m23.816 22.4-4.267-4.259c-.5043103.432308-.974692.9026897-1.407 1.407l4.26 4.267c.40166-.5364962.8777879-1.0129608 1.414-1.415z"/><path id="Shape" d="m33.6 23.816 4.26-4.267c-.432308-.5043103-.9026897-.974692-1.407-1.407l-4.269 4.258c.5369899.4021985 1.0138015.8790101 1.416 1.416z"/><path id="Shape" d="m44.946 43.532c-.4513333.4913333-.9226667.9626667-1.414 1.414l2.853 2.854c.1888524.1760744.4349567.2779964.693.287.2685771.0036744.5275976-.099574.72-.287.3903819-.3904999.3903819-1.0235001 0-1.414z"/><path id="Shape" d="m8.2 46.385c-.18603488.1826974-.28965772.4332697-.287.694-.0078182.2693268.09605082.5299041.287.72.39669542.3751231 1.01730458.3751231 1.414 0l2.853-2.853c-.4906667-.4513333-.962-.9226667-1.414-1.414z"/><path id="Shape" d="m11.054 12.468c.4513333-.4906667.9226667-.962 1.414-1.414l-2.853-2.854c-.17930083-.1825545-.42412173-.28588333-.68-.287h-.028c-.26251708-.00279211-.51500007.10072591-.7.287-.39038194.39049985-.39038194 1.02350015 0 1.414z"/><path id="Shape" d="m1 27c-.26092243-.0026276-.51160366.1014015-.694.288-.19569197.185071-.30639544.4426555-.306.712 0 .5522847.44771525 1 1 1h4.025c-.014-.332-.025-.665-.025-1s.011-.668.025-1z"/><path id="Shape" d="m35 28c-.002805.3348137-.0295398.6689987-.08 1h6.029c.026-.331.051-.662.051-1s-.025-.669-.051-1h-6.029c.0504602.3310013.077195.6651863.08 1z"/><path id="Shape" d="m47.8 9.615c.1860349-.18269745.2896577-.43326974.287-.694.0078182-.26932678-.0960508-.52990411-.287-.72-.3966954-.3751231-1.0173046-.3751231-1.414 0l-2.853 2.853c.4913333.4513333.9626667.9226667 1.414 1.414z"/><path id="Shape" d="m55 27h-4.025c.014.332.025.665.025 1s-.011.668-.025 1h4.025c.2609224.0026276.5116037-.1014015.694-.288.195692-.185071.3063954-.4426555.306-.712 0-.5522847-.4477153-1-1-1z"/><path id="Shape" d="m28 7c-11.5979797 0-21 9.4020203-21 21s9.4020203 21 21 21 21-9.4020203 21-21c-.0132259-11.592497-9.407503-20.98677409-21-21zm9.771 5.85c.3255016-.445457.9502733-.5431384 1.3962095-.2182935.4459362.3248448.544538.9494719.2203506 1.3958863-.3241874.4464143-.9486685.5459365-1.3955601.2224072-.2154492-.1559754-.3598826-.3913571-.4013562-.6540863-.0414737-.2627291.0234299-.5311561.1803562-.7459137zm-9.771-3.85c.5522847 0 1 .44771525 1 1 0 .5522847-.4477153 1-1 1s-1-.4477153-1-1c0-.55228475.4477153-1 1-1zm-11.168 3.629c.4468916-.3235293 1.0713727-.2240071 1.3955601.2224072.3241874.4464144.2255856 1.0710415-.2203506 1.3958863-.4459362.3248449-1.0707079.2271635-1.3962095-.2182935-.1569263-.2147576-.2218299-.4831846-.1803562-.7459137.0414736-.2627292.185907-.4981109.4013562-.6540863zm-5.642 21.884c-.3846691.1250122-.8067666.0059892-1.0694603-.3015664-.26269367-.3075556-.31424758-.7430725-.13062116-1.1034608.18362646-.3603883.56626906-.5746718.96949436-.5429258.4032252.031746.7476203.3032691.8725871.687953.1706208.52522-.1168001 1.0893172-.642 1.26zm.642-11.766c-.1249668.3846839-.4693619.656207-.8725871.687953-.4032253.031746-.7858679-.1825375-.96949436-.5429258-.18362642-.3603883-.13207251-.7959052.13062116-1.1034608.2626937-.3075556.6847912-.4265786 1.0694603-.3015664.5251999.1706828.8126208.73478.642 1.26zm6.4 20.4c-.3255016.445457-.9502733.5431384-1.3962095.2182935-.4459362-.3248448-.544538-.9494719-.2203506-1.3958863.3241874-.4464143.9486685-.5459365 1.3955601-.2224072.2158463.1564748.360276.3926603.401209.6560962s-.0250197.5323109-.183209.7469038zm9.768 3.853c-.5522847 0-1-.4477153-1-1s.4477153-1 1-1 1 .4477153 1 1-.4477153 1-1 1zm11.168-3.629c-.4468916.3235293-1.0713727.2240071-1.3955601-.2224072-.3241874-.4464144-.2255856-1.0710415.2203506-1.3958863.4459362-.3248449 1.0707079-.2271635 1.3962095.2182935.1569263.2147576.2218299.4831846.1803562.7459137-.0414736.2627292-.185907.4981109-.4013562.6540863zm5.642-21.884c.3846691-.1250122.8067666-.0059892 1.0694603.3015664s.3142476.7430725.1306212 1.1034608c-.1836265.3603883-.5662691.5746718-.9694944.5429258-.4032252-.031746-.7476203-.3032691-.8725871-.687953-.1706208-.52522.1168001-1.0893172.642-1.26zm-.642 11.766c.1249668-.3846839.4693619-.656207.8725871-.687953.4032253-.031746.7858679.1825375.9694944.5429258.1836264.3603883.1320725.7959052-.1306212 1.1034608s-.6847912.4265786-1.0694603.3015664c-.5251999-.1706828-.8126208-.73478-.642-1.26zm-16.168 9.747c-8.2842712 0-15-6.7157288-15-15s6.7157288-15 15-15 15 6.7157288 15 15c-.0093685 8.2803876-6.7196124 14.9906315-15 15z"/><path id="Shape" d="m27 34.92v6.029c.331.026.662.051 1 .051s.669-.025 1-.051v-6.029c-.6624.1066667-1.3376.1066667-2 0z"/><path id="Shape" d="m22.4 32.184-4.26 4.267c.432308.5043103.9026897.974692 1.407 1.407l4.269-4.258c-.5369899-.4021985-1.0138015-.8790101-1.416-1.416z"/><path id="Shape" d="m21 28c.002805-.3348137.0295398-.6689987.08-1h-6.029c-.026.331-.051.662-.051 1s.025.669.051 1h6.029c-.0504602-.3310013-.077195-.6651863-.08-1z"/><path id="Shape" d="m32.184 33.6 4.267 4.259c.5043103-.432308.974692-.9026897 1.407-1.407l-4.258-4.268c-.4021985.5369899-.8790101 1.0138015-1.416 1.416z"/></g></g></svg>